<svg xmlns="http://www.w3.org/2000/svg" xmlns:xlink="http://www.w3.org/1999/xlink" id="processonSvg1000" viewBox="224.0 140.0 567.0 540.0" width="567.0" height="540.0"><defs id="ProcessOnDefs1001"/><g id="ProcessOnG1002"><path id="ProcessOnPath1003" d="M224.0 140.0H791.0V680.0H224.0V140.0Z" fill="#000000"/><g id="ProcessOnG1004"><g id="ProcessOnG1005" transform="matrix(1.0,0.0,0.0,1.0,254.5,160.0)" opacity="1.0"><path id="ProcessOnPath1006" d="M0.0 0.0L500.0 0.0L500.0 500.0L0.0 500.0Z" stroke="#ffffff" stroke-width="10.0" stroke-dasharray="none" opacity="1.0" fill="none"/></g><g id="ProcessOnG1007" transform="matrix(0.5000000000000009,-0.8660254037844382,0.8660254037844382,0.5000000000000009,414.6567332602632,598.7348809760974)" opacity="1.0"><path id="ProcessOnPath1008" d="M4.41 0.0L458.59 0.0L463.0 10.5L458.59 21.0L4.41 21.0L0.0 10.5L4.41 0.0Z" stroke="#ffffff" stroke-width="0.0" stroke-dasharray="none" opacity="1.0" fill="#ffffff"/></g><g id="ProcessOnG1009" transform="matrix(0.5000000000000001,0.8660254037844386,-0.8660254037844386,0.5000000000000001,368.8432667397366,197.76511902390246)" opacity="1.0"><path id="ProcessOnPath1010" d="M4.41 0.0L458.59 0.0L463.0 10.5L458.59 21.0L4.41 21.0L0.0 10.5L4.41 0.0Z" stroke="#ffffff" stroke-width="0.0" stroke-dasharray="none" opacity="1.0" fill="#ffffff"/></g><g id="ProcessOnG1011" transform="matrix(1.0,0.0,0.0,1.0,273.0,307.0)" opacity="1.0"><path id="ProcessOnPath1012" d="M4.41 0.0L458.59 0.0L463.0 10.5L458.59 21.0L4.41 21.0L0.0 10.5L4.41 0.0Z" stroke="#ffffff" stroke-width="0.0" stroke-dasharray="none" opacity="1.0" fill="#ffffff"/></g></g></g></svg>